<svg xmlns="http://www.w3.org/2000/svg" viewBox="0 0 32 32" role="img" aria-label="Stars">
  <style>
    .bg { fill: #24292f; }
    .star { fill: #eac54f; }
    @media (prefers-color-scheme: dark) {
      .bg { fill: #0d1117; }
      .star { fill: #eac54f; }
    }
  </style>
  <rect class="bg" width="32" height="32" rx="7" />
  <g transform="translate(16 16) scale(1.5) translate(-8 -8)">
    <path
      class="star"
      d="M8 .25a.75.75 0 0 1 .673.418l1.882 3.815 4.21.612a.75.75 0 0 1 .416 1.279l-3.046 2.97.719 4.192a.751.751 0 0 1-1.088.791L8 12.347l-3.766 1.98a.75.75 0 0 1-1.088-.79l.72-4.194L.818 6.374a.75.75 0 0 1 .416-1.28l4.21-.611L7.327.668A.75.75 0 0 1 8 .25Z"
    />
  </g>
</svg>
